# xmcd
#
# Track frame offsets:
#	150
#	19533
#	37507
#	54339
#	71049
#	86536
#	103293
#	117915
#	135462
#	149960
#	165124
#	181225
#	197272
#	212747
#	230435
#	246376
#	256074
#	271825
#
# Disc length: 3839 seconds
#
# Revision: 1
# Processed by: cddbd v1.5.2PL0 Copyright (c) Steve Scherf et al.
# Submitted via: audiograbber 1.83.01
#
DISCID=ef0efd12
DTITLE=Various Artist - CDX 431
DYEAR=2007
DGENRE=Country
TTITLE0=Kenny Chesney - Don't Blink (single edit)
TTITLE1=Keith Urban - Everyboday (single edit)
TTITLE2=Cledus T. Judd - Gitarzan feat. Heidi Newfield
TTITLE3=Lee Brice - Happy Endings
TTITLE4=Taylor Swift - Our Song
TTITLE5=Eric Church - Sinners Like Me (single edit)
TTITLE6=Ashton Sheperd - Taking Off This Pain
TTITLE7=Lori McKenna - Unglamorous
TTITLE8=Shooter Jennings - Walk Of Life
TTITLE9=Gretchen Wilson - Yo Don't Have To Go Home
TTITLE10=Drew Davis Band - Back There All The Time
TTITLE11=Laura Bryna - Make A Wish
TTITLE12=Andy Girggs - What If It's Me
TTITLE13=Mark Schultz - Walking her home
TTITLE14=Merle Haggard - Wouldn't That Be Something
TTITLE15=Tony "Hobo" Parks - Barroom Blues
TTITLE16=Ansel Brown - Mine's Bigger
TTITLE17=Cody Dolley - She's Too Good At Doing (All The Wrong Things Right)
EXTD=
EXTT0=
EXTT1=
EXTT2=
EXTT3=
EXTT4=
EXTT5=
EXTT6=
EXTT7=
EXTT8=
EXTT9=
EXTT10=
EXTT11=
EXTT12=
EXTT13=
EXTT14=
EXTT15=
EXTT16=
EXTT17=
PLAYORDER=
